<?xml version="1.0" encoding="UTF-8" standalone="no"?>
<!-- Created with Inkscape (http://www.inkscape.org/) -->

<svg
   xmlns:dc="http://purl.org/dc/elements/1.1/"
   xmlns:cc="http://creativecommons.org/ns#"
   xmlns:rdf="http://www.w3.org/1999/02/22-rdf-syntax-ns#"
   xmlns:svg="http://www.w3.org/2000/svg"
   xmlns="http://www.w3.org/2000/svg"
   xmlns:sodipodi="http://sodipodi.sourceforge.net/DTD/sodipodi-0.dtd"
   xmlns:inkscape="http://www.inkscape.org/namespaces/inkscape"
   width="210mm"
   height="297mm"
   viewBox="0 0 744.09448819 1052.3622047"
   id="svg4334"
   version="1.1"
   inkscape:version="0.91 r13725"
   sodipodi:docname="cityLine.svg">
  <defs
     id="defs4336" />
  <sodipodi:namedview
     id="base"
     pagecolor="#ffffff"
     bordercolor="#666666"
     borderopacity="1.0"
     inkscape:pageopacity="0.0"
     inkscape:pageshadow="2"
     inkscape:zoom="2.8"
     inkscape:cx="432.14286"
     inkscape:cy="-65.714286"
     inkscape:document-units="px"
     inkscape:current-layer="layer1"
     showgrid="false"
     inkscape:window-width="1280"
     inkscape:window-height="752"
     inkscape:window-x="0"
     inkscape:window-y="0"
     inkscape:window-maximized="1" />
  <metadata
     id="metadata4339">
    <rdf:RDF>
      <cc:Work
         rdf:about="">
        <dc:format>image/svg+xml</dc:format>
        <dc:type
           rdf:resource="http://purl.org/dc/dcmitype/StillImage" />
        <dc:title></dc:title>
      </cc:Work>
    </rdf:RDF>
  </metadata>
  <g
     inkscape:label="Layer 1"
     inkscape:groupmode="layer"
     id="layer1">
    <g
       transform="matrix(1.274458,0,0,-1.25,1.1111372,1047.1289)"
       id="g4153"
       style="fill:#000000">
      <path
         inkscape:connector-curvature="0"
         id="path4155"
         style="fill:#000000;fill-opacity:1;fill-rule:evenodd;stroke:none"
         d="m 0,0 c 0.326,0 0.594,-0.054 0.594,-0.121 0,-0.063 0.37,-0.117 0.823,-0.117 0.453,0 0.825,0.08 0.825,0.179 0,0.097 0.324,0.178 0.719,0.178 0.396,0 0.721,0.656 0.721,1.458 0,0.802 0.823,1.459 1.83,1.459 l 1.126,0 c 1.007,0 1.831,-0.523 1.831,-1.163 0,-0.641 0.039,-1.163 0.088,-1.163 0.048,0 0.089,-0.194 0.089,-0.43 0,-0.235 0.232,-0.43 0.518,-0.43 0.285,0 0.519,0.141 0.519,0.313 0,0.169 0.095,0.31 0.213,0.31 0.117,0 0.213,-0.054 0.213,-0.118 0,-0.066 0.33,-0.118 0.733,-0.118 0.402,0 0.731,0.279 0.731,0.62 0,0.343 0.137,0.622 0.305,0.622 0.168,0 0.483,0.18 0.701,0.399 0.219,0.221 0.465,0.221 0.55,0 0.083,-0.219 0.276,-0.399 0.426,-0.399 0.152,0 0.275,-0.252 0.275,-0.561 0,-0.311 0.274,-0.563 0.61,-0.563 0.336,0 0.61,0.166 0.61,0.369 0,0.205 0.248,0.372 0.55,0.372 0.3,0 0.548,-0.083 0.548,-0.178 0,-0.099 0.247,-0.178 0.549,-0.178 0.302,0 0.549,0.215 0.549,0.48 0,0.264 0.254,0.481 0.564,0.481 0.31,0 0.729,0.079 0.93,0.177 0.201,0.1 0.552,0.088 0.778,-0.023 0.227,-0.108 0.577,-0.198 0.777,-0.198 0.202,0 0.366,-0.101 0.366,-0.222 l 0,-0.43 c 0,-0.115 0.22,-0.208 0.488,-0.208 0.268,0 0.489,0.074 0.489,0.165 0,0.089 0.151,0.163 0.335,0.163 0.185,0 0.335,-0.048 0.335,-0.105 0,-0.057 0.11,-0.102 0.244,-0.102 0.134,0 0.244,0.078 0.244,0.178 0,0.095 0.069,0.175 0.153,0.175 0.083,0 0.153,-0.066 0.153,-0.146 0,-0.083 0.164,-0.149 0.366,-0.149 0.201,0 0.365,-0.067 0.365,-0.148 0,-0.082 0.275,-0.148 0.61,-0.148 0.335,0 0.61,-0.053 0.61,-0.117 0,-0.067 0.178,-0.119 0.396,-0.119 0.218,0 0.397,0.112 0.397,0.251 l 0,0.502 c 0,0.139 0.26,0.252 0.579,0.252 0.32,0 0.58,-0.119 0.58,-0.266 0,-0.146 0.164,-0.265 0.365,-0.265 0.202,0 0.367,0.119 0.367,0.265 0,0.147 0.247,0.266 0.55,0.266 0.301,0 0.548,-0.119 0.548,-0.266 0,-0.146 0.138,-0.265 0.305,-0.265 0.168,0 0.305,0.119 0.305,0.265 0,0.147 0.261,0.266 0.579,0.266 0.32,0 0.58,-0.127 0.58,-0.281 0,-0.155 0.453,-0.28 1.006,-0.28 0.554,0 1.007,0.179 1.007,0.4 0,0.218 0.479,0.399 1.067,0.399 0.587,0 1.067,-0.166 1.067,-0.37 0,-0.205 0.261,-0.371 0.58,-0.371 0.318,0 0.579,0.093 0.579,0.207 0,0.116 0.152,0.208 0.336,0.208 0.184,0 0.335,-0.073 0.335,-0.164 0,-0.088 0.207,-0.161 0.458,-0.161 0.252,0 0.457,0.268 0.457,0.598 0,0.329 0.343,0.599 0.763,0.599 0.418,0 0.762,-0.195 0.762,-0.437 0,-0.24 0.274,-0.435 0.61,-0.435 0.335,0 0.609,0.147 0.609,0.326 0,0.177 0.111,0.324 0.244,0.324 0.136,0 0.245,-0.036 0.245,-0.081 0,-0.045 0.13,-0.082 0.29,-0.082 0.158,0 0.351,0.03 0.426,0.067 0.076,0.037 0.207,0.067 0.29,0.067 0.084,0 0.154,0.047 0.154,0.104 0,0.057 0.095,0.103 0.213,0.103 0.116,0 0.213,-0.04 0.213,-0.089 0,-0.049 0.15,-0.089 0.335,-0.089 0.184,0 0.335,-0.105 0.335,-0.237 0,-0.13 0.194,-0.236 0.428,-0.236 0.234,0 0.426,0.174 0.426,0.384 0,0.212 0.288,0.386 0.641,0.386 0.353,0 0.64,-0.055 0.64,-0.119 0,-0.065 0.399,-0.118 0.885,-0.118 0.487,0 0.885,-0.086 0.885,-0.193 0,-0.107 0.123,-0.191 0.275,-0.191 0.15,0 0.274,-0.048 0.274,-0.104 0,-0.058 0.109,-0.104 0.243,-0.104 0.134,0 0.244,0.227 0.244,0.503 0,0.277 0.263,0.504 0.583,0.504 0.32,0 0.583,0.226 0.583,0.508 0,0.278 0.74,0.509 1.644,0.509 0.907,0 1.647,-0.308 1.647,-0.686 0,-0.378 0.439,-0.687 0.974,-0.687 0.536,0 0.974,0.213 0.974,0.474 0,0.26 0.124,0.473 0.274,0.473 0.151,0 0.274,-0.088 0.274,-0.193 0,-0.105 0.207,-0.193 0.458,-0.193 0.252,0 0.457,-0.087 0.457,-0.191 0,-0.107 0.125,-0.192 0.274,-0.192 0.152,0 0.275,-0.074 0.275,-0.164 0,-0.088 0.179,-0.162 0.397,-0.162 0.218,0 0.397,0.178 0.397,0.4 0,0.219 0.15,0.399 0.335,0.399 0.185,0 0.336,-0.134 0.336,-0.295 0,-0.165 0.109,-0.297 0.244,-0.297 0.134,0 0.243,0.08 0.243,0.178 0,0.097 0.138,0.176 0.305,0.176 0.168,0 0.305,0.127 0.305,0.277 0,0.153 0.193,0.276 0.428,0.276 0.234,0 0.425,-0.057 0.425,-0.128 0,-0.071 0.289,-0.128 0.641,-0.128 0.352,0 0.642,0.174 0.642,0.385 0,0.21 0.151,0.384 0.335,0.384 0.185,0 0.583,-0.119 0.885,-0.267 0.302,-0.145 0.768,-0.265 1.036,-0.265 0.268,0 0.488,-0.169 0.488,-0.377 0,-0.209 0.281,-0.379 0.626,-0.379 0.343,0 0.837,0.105 1.098,0.231 0.26,0.125 0.472,0.302 0.472,0.391 0,0.09 0.261,0.164 0.58,0.164 0.318,0 0.579,-0.066 0.579,-0.149 0,-0.08 0.302,-0.148 0.671,-0.148 0.369,0 0.671,0.155 0.671,0.343 0,0.189 0.206,0.346 0.456,0.346 0.252,0 0.458,-0.075 0.458,-0.168 0,-0.09 0.344,-0.166 0.764,-0.166 0.419,0 0.761,-0.22 0.761,-0.488 0,-0.268 0.234,-0.488 0.518,-0.488 0.287,0 0.519,0.154 0.519,0.34 0,0.187 0.233,0.34 0.519,0.34 0.284,0 0.518,-0.087 0.518,-0.192 0,-0.106 0.11,-0.191 0.244,-0.191 0.134,0 0.244,0.205 0.244,0.457 0,0.252 0.124,0.459 0.274,0.459 0.151,0 0.276,-0.148 0.276,-0.325 0,-0.18 0.247,-0.326 0.548,-0.326 0.302,0 0.548,0.114 0.548,0.252 0,0.139 0.194,0.251 0.428,0.251 0.235,0 0.426,0.166 0.426,0.37 0,0.203 0.098,0.37 0.215,0.37 0.118,0 0.214,-0.22 0.214,-0.488 0,-0.269 0.205,-0.489 0.457,-0.489 0.251,0 0.457,0.092 0.457,0.208 l 0,1.146 c 0,0.516 0.503,0.936 1.118,0.936 0.615,0 1.119,-0.335 1.119,-0.745 0,-0.409 0.072,-0.747 0.162,-0.747 0.09,0 0.162,-0.106 0.162,-0.235 0,-0.131 0.276,-0.238 0.611,-0.238 0.335,0 0.609,0.18 0.609,0.4 0,0.219 0.124,0.399 0.275,0.399 0.151,0 0.274,-0.225 0.274,-0.503 0,-0.277 0.386,-0.502 0.855,-0.502 0.469,0 0.854,-0.047 0.854,-0.103 0,-0.057 0.219,-0.104 0.487,-0.104 0.269,0 0.488,0.133 0.488,0.296 0,0.161 0.179,0.296 0.397,0.296 0.218,0 0.397,-0.08 0.397,-0.179 0,-0.096 0.11,-0.177 0.244,-0.177 0.133,0 0.243,0.055 0.243,0.118 0,0.066 0.096,0.119 0.213,0.119 0.119,0 0.215,-0.066 0.215,-0.148 0,-0.081 0.178,-0.147 0.396,-0.147 0.218,0 0.396,0.046 0.396,0.104 0,0.055 0.22,0.102 0.488,0.102 0.269,0 0.487,-0.06 0.487,-0.133 0,-0.073 0.303,-0.134 0.673,-0.134 0.37,0 0.672,0.732 0.672,1.626 0,0.894 0.142,1.627 0.317,1.627 0.174,0 0.317,0.227 0.317,0.507 0,0.279 0.243,0.507 0.539,0.507 0.297,0 0.541,-0.228 0.541,-0.507 0,-0.28 0.29,-0.507 0.647,-0.507 0.355,0 0.646,0.098 0.646,0.218 0,0.122 0.171,0.221 0.378,0.221 0.208,0 0.378,-0.099 0.378,-0.221 0,-0.12 0.358,-0.218 0.795,-0.218 0.437,0 0.794,-0.36 0.794,-0.797 0,-0.439 0.029,-0.798 0.068,-0.798 0.038,0 0.068,-0.072 0.068,-0.163 0,-0.09 0.289,-0.163 0.641,-0.163 0.351,0 0.639,0.101 0.639,0.222 0,0.122 0.261,0.224 0.58,0.224 0.319,0 0.579,-0.328 0.579,-0.727 0,-0.399 0.261,-0.725 0.58,-0.725 0.318,0 0.58,0.247 0.58,0.548 0,0.301 0.233,0.547 0.518,0.547 0.286,0 0.518,-0.204 0.518,-0.459 0,-0.253 0.152,-0.458 0.336,-0.458 0.185,0 0.336,0.373 0.336,0.828 0,0.456 0.178,0.829 0.396,0.829 0.219,0 0.396,-0.227 0.396,-0.503 0,-0.277 0.274,-0.502 0.61,-0.502 0.336,0 0.61,-0.148 0.61,-0.326 0,-0.18 0.316,-0.326 0.702,-0.326 0.386,0 0.701,0.265 0.701,0.591 0,0.326 0.522,0.591 1.159,0.591 0.638,0 1.159,-0.258 1.159,-0.577 0,-0.316 0.176,-0.575 0.393,-0.575 0.217,0 0.394,0.823 0.394,1.829 l 0,0.168 c 0,1.006 0.822,1.83 1.829,1.83 l 1.146,0 c 1.007,0 1.83,-0.435 1.83,-0.967 0,-0.532 0.252,-0.966 0.558,-0.966 0.308,0 0.559,-0.366 0.559,-0.815 0,-0.446 0.316,-0.813 0.702,-0.813 0.386,0 0.701,0.279 0.701,0.621 0,0.343 0.152,0.622 0.336,0.622 0.184,0 0.335,-0.167 0.335,-0.37 0,-0.203 0.193,-0.37 0.427,-0.37 0.235,0 0.427,0.113 0.427,0.251 0,0.138 0.288,0.252 0.64,0.252 0.353,0 0.641,0.146 0.641,0.324 0,0.179 0.142,0.323 0.314,0.323 0.172,0 0.312,0.17 0.312,0.381 0,0.207 0.474,0.378 1.053,0.378 0.578,0 1.051,-0.39 1.051,-0.865 0,-0.476 0.141,-0.867 0.313,-0.867 0.171,0 0.312,-0.093 0.312,-0.207 0,-0.113 0.15,-0.208 0.335,-0.208 0.184,0 0.335,0.135 0.335,0.297 0,0.163 0.152,0.296 0.336,0.296 0.185,0 0.335,0.153 0.335,0.341 0,0.185 0.166,0.34 0.367,0.34 0.2,0 0.366,-0.24 0.366,-0.533 0,-0.292 0.219,-0.533 0.488,-0.533 0.268,0 0.487,0.205 0.487,0.458 0,0.255 0.317,0.46 0.702,0.46 0.386,0 0.701,-0.108 0.701,-0.237 0,-0.13 0.262,-0.237 0.58,-0.237 0.319,0 0.58,0.287 0.58,0.638 0,0.347 0.162,0.635 0.364,0.635 0.2,0 0.363,0.343 0.363,0.763 0,0.422 0.382,0.764 0.848,0.764 0.467,0 0.849,0.06 0.849,0.134 0,0.073 0.154,0.133 0.343,0.133 0.189,0 0.344,-0.06 0.344,-0.133 0,-0.074 0.383,-0.134 0.853,-0.134 0.469,0 0.855,0.15 0.855,0.333 0,0.182 0.201,0.331 0.449,0.331 0.247,0 0.45,0.089 0.45,0.201 0,0.109 0.092,0.199 0.205,0.199 0.113,0 0.206,-0.09 0.206,-0.199 0,-0.112 0.184,-0.201 0.41,-0.201 0.225,0 0.409,-0.149 0.409,-0.331 0,-0.183 0.124,-0.333 0.277,-0.333 0.153,0 0.276,0.09 0.276,0.2 0,0.109 0.34,0.199 0.755,0.199 0.415,0 0.755,-0.09 0.755,-0.199 0,-0.11 0.113,-0.2 0.251,-0.2 0.139,0 0.252,-0.205 0.252,-0.451 0,-0.251 0.07,-0.455 0.153,-0.455 0.084,0 0.154,-0.032 0.154,-0.074 0,-0.041 0.149,-0.074 0.334,-0.074 0.185,0 0.336,-0.266 0.336,-0.591 0,-0.325 0.288,-0.592 0.64,-0.592 0.352,0 0.64,0.153 0.64,0.341 0,0.185 0.274,0.339 0.611,0.339 0.335,0 0.61,-0.06 0.61,-0.131 0,-0.074 0.288,-0.135 0.639,-0.135 0.353,0 0.641,0.227 0.641,0.503 0,0.275 0.521,0.502 1.159,0.502 0.637,0 1.159,-0.233 1.159,-0.517 0,-0.286 0.371,-0.518 0.823,-0.518 0.453,0 0.824,0.079 0.824,0.179 0,0.097 0.26,0.177 0.579,0.177 0.319,0 0.58,-0.087 0.58,-0.191 0,-0.107 0.178,-0.195 0.397,-0.195 0.217,0 0.396,0.221 0.396,0.49 l 0,0.55 c 0,0.036 0.823,0.068 1.83,0.07 l 0.357,0.001 c 1.005,0.003 2.433,0.012 3.172,0.017 0.739,0.005 1.343,-0.147 1.343,-0.34 0,-0.192 0.823,-0.35 1.829,-0.35 l 0.579,0 c 1.006,0 1.828,0.129 1.828,0.285 0,0.155 0.769,0.283 1.705,0.283 0.937,0 1.704,0.572 1.704,1.271 0,0.699 0.803,1.272 1.785,1.272 0.98,0 1.783,0.148 1.783,0.333 0,0.182 0.494,0.33 1.098,0.33 0.604,0 1.098,-0.148 1.098,-0.33 0,-0.185 0.494,-0.333 1.098,-0.333 0.604,0 1.098,0.312 1.098,0.697 0,0.386 0.278,0.7 0.617,0.7 0.339,0 0.618,-0.314 0.618,-0.7 0,-0.385 0.493,-0.697 1.098,-0.697 0.603,0 1.097,-0.825 1.097,-1.831 l 0,-0.535 c 0,-1.006 0.287,-1.829 0.637,-1.829 0.35,0 0.635,0.268 0.635,0.595 0,0.327 0.824,0.596 1.831,0.596 l 0.302,0 c 1.007,0 1.829,-0.269 1.829,-0.596 0,-0.327 0.088,-0.595 0.195,-0.595 0.105,0 0.192,-0.12 0.192,-0.268 0,-0.146 0.579,-0.266 1.287,-0.266 0.709,0 1.148,0.811 0.976,1.803 0,0 -0.012,0.07 -0.012,1.11 0,3.848 1.597,6.967 3.568,6.967 1.97,0 3.567,-3.119 3.567,-6.967 l 0,-0.22 c -0.008,-0.235 0.242,-0.427 0.556,-0.427 0.313,0 0.569,-0.215 0.569,-0.479 0,-0.265 0.433,-0.481 0.964,-0.481 0.529,0 0.963,-0.266 0.963,-0.592 0,-0.322 0.396,-0.588 0.879,-0.588 0.485,0 0.883,0.397 0.883,0.883 0,0.486 0.408,0.883 0.908,0.883 0.498,0 0.907,0.824 0.907,1.831 l 0,0.365 c 0,1.006 0.149,1.83 0.331,1.83 0.18,0 0.33,0.233 0.33,0.517 0,0.282 0.458,0.515 1.018,0.515 0.56,0 1.018,-0.233 1.018,-0.515 0,-0.284 0.359,-0.517 0.798,-0.517 0.439,0 0.799,-0.302 0.799,-0.671 0,-0.369 0.655,-0.67 1.458,-0.67 l 3.159,0 c 0.936,0 1.703,0.318 1.703,0.709 0,0.388 0.309,0.707 0.687,0.707 0.376,0 0.686,-0.319 0.686,-0.707 0,-0.391 0.392,-0.709 0.873,-0.709 0.478,0 0.872,0.824 0.872,1.831 l 0,1.124 c 0,1.008 0.739,2.191 1.646,2.628 l 0.257,0.125 c 0.904,0.439 2.094,0.798 2.642,0.798 0.548,0 0.997,0.065 0.997,0.146 0,0.08 0.332,0.146 0.738,0.146 0.409,0 0.869,0.732 1.025,1.626 0.158,0.897 0.414,0.897 0.57,0 0.158,-0.894 0.637,-1.626 1.065,-1.626 0.427,0 0.777,-0.066 0.777,-0.146 0,-0.081 0.442,-0.146 0.984,-0.146 0.542,0 0.985,0.824 0.985,1.828 l 0,2.896 c 0,1.004 0.824,1.828 1.83,1.828 l 4.927,0 c 1.005,0 1.83,-0.824 1.83,-1.828 l 0,-8.033 c 0,-1.007 0.823,-1.83 1.829,-1.83 l 0.882,0 c 1.006,0 1.831,0.823 1.831,1.83 l 0,7.769 0,3.66 0,3.082 c 0,1.004 0.779,2.091 1.734,2.414 l 1.729,0.583 c 0.954,0.322 5.304,0.371 6.255,0.036 l 1.847,-0.649 c 0.949,-0.336 1.727,-1.184 1.727,-1.886 l 0,-3.108 0,-10.218 0,-3.659 0,-0.278 c 0,-1.006 0.822,-1.83 1.828,-1.83 l 1.41,0 c 1.007,0 1.831,0.363 1.831,0.809 0,0.445 -0.141,0.74 -0.315,0.656 -0.172,-0.083 -0.311,-0.013 -0.311,0.156 0,0.166 0.139,0.373 0.311,0.457 0.174,0.081 0.315,0.305 0.315,0.496 0,0.19 -0.141,0.278 -0.315,0.192 -0.172,-0.082 -0.311,-0.013 -0.311,0.154 0,0.168 0.139,0.373 0.311,0.457 0.174,0.084 0.315,0.308 0.315,0.497 0,0.19 -0.141,0.277 -0.315,0.195 -0.172,-0.084 -0.311,-0.015 -0.311,0.153 0,0.168 0.139,0.373 0.311,0.458 0.174,0.084 0.315,0.307 0.315,0.497 0,0.191 -0.141,0.276 -0.315,0.193 -0.172,-0.084 -0.311,-0.014 -0.311,0.153 0,0.166 0.139,0.376 0.311,0.457 0.174,0.084 0.315,0.308 0.315,0.498 0,0.189 -0.141,0.277 -0.315,0.193 -0.172,-0.084 -0.311,-0.015 -0.311,0.153 0,0.169 0.139,0.375 0.311,0.457 0.174,0.084 0.315,0.308 0.315,0.497 0,0.191 -0.141,0.279 -0.315,0.195 -0.172,-0.086 -0.311,-0.016 -0.311,0.153 0,0.168 0.139,0.374 0.311,0.458 0.174,0.083 0.315,0.307 0.315,0.497 0,0.189 -0.141,0.277 -0.315,0.193 -0.172,-0.083 -0.311,-0.015 -0.311,0.152 0,0.168 0.139,0.375 0.311,0.459 0.174,0.083 0.315,0.308 0.315,0.496 0,0.191 -0.141,0.277 -0.315,0.195 -0.172,-0.084 -0.311,-0.014 -0.311,0.153 0,0.166 0.139,0.372 0.311,0.457 0.174,0.083 0.315,0.307 0.315,0.497 0,0.19 -0.141,0.278 -0.315,0.193 -0.172,-0.084 -0.311,-0.014 -0.311,0.154 0,0.169 0.139,0.374 0.311,0.456 0.174,0.085 0.315,0.323 0.315,0.528 0,0.207 0.63,0.375 1.402,0.375 0.772,0 1.403,0.169 1.403,0.374 0,0.206 0.824,0.373 1.829,0.373 l 3.178,0 c 1.004,0 1.829,-0.167 1.829,-0.373 0,-0.205 0.604,-0.374 1.343,-0.374 0.74,0 1.344,-0.168 1.344,-0.375 0,-0.205 0.139,-0.443 0.312,-0.528 0.172,-0.082 0.314,-0.287 0.314,-0.456 0,-0.168 -0.142,-0.238 -0.314,-0.154 -0.173,0.085 -0.312,-0.003 -0.312,-0.193 0,-0.19 0.139,-0.414 0.312,-0.497 0.172,-0.085 0.314,-0.291 0.314,-0.457 0,-0.167 -0.142,-0.237 -0.314,-0.153 -0.173,0.082 -0.312,-0.004 -0.312,-0.195 0,-0.188 0.139,-0.413 0.312,-0.496 0.172,-0.084 0.314,-0.291 0.314,-0.459 0,-0.167 -0.142,-0.235 -0.314,-0.152 -0.173,0.084 -0.312,-0.004 -0.312,-0.193 0,-0.19 0.139,-0.414 0.312,-0.497 0.172,-0.084 0.314,-0.29 0.314,-0.458 0,-0.169 -0.142,-0.239 -0.314,-0.153 -0.173,0.084 -0.312,-0.004 -0.312,-0.195 0,-0.189 0.139,-0.413 0.312,-0.497 0.172,-0.082 0.314,-0.288 0.314,-0.457 0,-0.168 -0.142,-0.237 -0.314,-0.153 -0.173,0.084 -0.312,-0.004 -0.312,-0.193 0,-0.19 0.139,-0.414 0.312,-0.498 0.172,-0.081 0.314,-0.291 0.314,-0.457 0,-0.167 -0.142,-0.237 -0.314,-0.153 -0.173,0.083 -0.312,-0.002 -0.312,-0.193 0,-0.19 0.139,-0.413 0.312,-0.497 0.172,-0.085 0.314,-0.29 0.314,-0.458 0,-0.168 -0.142,-0.237 -0.314,-0.153 -0.173,0.082 -0.312,-0.005 -0.312,-0.195 0,-0.189 0.139,-0.413 0.312,-0.497 0.172,-0.084 0.314,-0.289 0.314,-0.457 0,-0.167 -0.142,-0.236 -0.314,-0.154 -0.173,0.086 -0.312,-0.002 -0.312,-0.192 0,-0.191 0.139,-0.415 0.312,-0.496 0.172,-0.084 0.314,-0.291 0.314,-0.457 0,-0.169 -0.142,-0.239 -0.314,-0.156 -0.173,0.084 -0.312,-0.105 -0.312,-0.419 0,-0.316 0.58,-0.291 1.292,0.053 0.712,0.345 1.604,0.628 1.982,0.628 0.376,0 0.686,0.82 0.686,1.829 l 0,14.235 c 0,1.005 0.282,1.828 0.625,1.828 0.341,0 0.624,0.07 0.624,0.155 0,0.086 0.634,0.154 1.415,0.154 0.78,0 1.418,-0.068 1.418,-0.154 0,-0.085 0.629,-0.155 1.399,-0.155 0.768,0 1.398,0.075 1.398,0.167 0,0.09 0.823,0.164 1.827,0.164 l 1.914,0 c 1.007,0 1.817,-0.077 1.803,-0.169 -0.012,-0.095 0.253,-0.17 0.593,-0.17 0.339,0 0.61,-0.822 0.601,-1.829 l -0.107,-14.237 c -0.008,-1.005 0.514,-1.49 1.161,-1.071 0.646,0.417 1.177,1.58 1.174,2.586 l -0.014,17.637 c 0,1.007 0.197,1.83 0.441,1.83 0.244,0 0.443,0.116 0.443,0.26 0,0.141 0.11,0.256 0.244,0.256 0.134,0 0.247,0.071 0.247,0.162 0,0.087 0.069,0.158 0.157,0.158 0.088,0 0.159,-0.071 0.159,-0.158 0,-0.091 0.127,-0.162 0.277,-0.162 0.151,0 0.274,0.014 0.274,0.034 0,0.019 0.422,0.032 0.938,0.032 0.515,0 0.936,-0.013 0.936,-0.032 0,-0.02 0.127,-0.034 0.275,-0.034 0.153,0 0.277,0.078 0.277,0.171 0,0.095 0.152,0.174 0.341,0.174 0.189,0 0.344,-0.079 0.344,-0.174 0,-0.093 0.277,-0.171 0.614,-0.171 0.34,0 0.617,-0.123 0.617,-0.271 0,-0.149 0.166,-0.27 0.369,-0.27 0.201,0 0.367,0.027 0.367,0.059 0,0.031 0.155,0.059 0.344,0.059 0.19,0 0.341,-0.028 0.341,-0.059 0,-0.032 0.472,-0.057 1.044,-0.057 0.575,0 1.046,0.027 1.046,0.058 0,0.03 0.123,0.058 0.273,0.058 0.151,0 0.274,-0.028 0.274,-0.058 0,-0.03 0.221,-0.055 0.49,-0.055 0.271,0 0.488,0.131 0.488,0.293 0,0.162 0.207,0.293 0.457,0.293 0.252,0 0.457,0.041 0.457,0.092 0,0.05 0.096,0.091 0.207,0.091 0.112,0 0.205,-0.041 0.205,-0.091 0,-0.051 0.268,-0.092 0.594,-0.092 0.329,0 0.598,0.081 0.598,0.18 0,0.099 0.1,0.181 0.224,0.181 0.127,0 0.233,-0.082 0.233,-0.181 0,-0.099 0.16,-0.18 0.355,-0.18 0.198,0 0.359,-0.131 0.359,-0.293 0,-0.162 0.251,-0.293 0.561,-0.293 0.305,0 0.559,-0.824 0.559,-1.831 l 0,-11.011 c 0,-1.005 0.82,-1.828 1.828,-1.828 l 0.295,0 c 1.004,0 1.828,0.823 1.828,1.828 l 0,3.28 c 0,1.008 0.539,1.83 1.199,1.83 0.657,0 1.196,0.055 1.196,0.12 0,0.066 0.824,0.121 1.832,0.121 l 3.27,0 c 1.005,0 1.83,-0.055 1.83,-0.121 0,-0.065 0.526,-0.12 1.173,-0.12 0.645,0 1.17,-0.822 1.17,-1.83 l 0,-9.024 c 0,-1.006 0.25,-1.829 0.551,-1.829 0.303,0 0.552,0.823 0.552,1.829 l 0,2.068 c 0,1.004 0.116,1.828 0.256,1.828 0.139,0 0.253,0.069 0.253,0.151 0,0.083 0.824,0.152 1.831,0.151 l 0.926,0 c 1.006,0 1.831,-0.071 1.831,-0.159 0,-0.088 0.138,-0.159 0.304,-0.157 0.168,0.004 0.306,-0.819 0.306,-1.825 l 0,-3.212 c 0,-1.009 0.088,-1.829 0.196,-1.829 0.108,0 0.196,0.82 0.196,1.829 l 0,6.341 c 0,1.007 0.362,1.829 0.802,1.829 0.444,0 0.804,0.325 0.804,0.722 0,0.393 4.553,0.718 4.553,0.718 1.006,0 2.572,-0.36 3.479,-0.798 l 0.557,-0.27 c 0.908,-0.439 1.646,-1.621 1.646,-2.627 l 0,-2.697 c 0,-1.007 0.623,-1.83 1.385,-1.83 0.759,0 1.617,0.114 1.904,0.253 0.287,0.14 0.519,1.077 0.519,2.083 l 0,6.057 c 0,1.007 0.207,1.831 0.456,1.833 0.248,0 0.768,0.312 1.155,0.688 0.386,0.377 1.524,0.686 2.53,0.69 l 3.416,0.003 c 1.008,0 2.177,-0.293 2.596,-0.656 0.422,-0.36 0.982,-0.653 1.251,-0.65 0.266,0.001 0.487,-0.821 0.487,-1.829 l 0,-5.831 c 0,-1.006 0.339,-1.829 0.756,-1.829 0.412,0 0.752,-0.643 0.752,-1.427 0,-0.785 0.226,-1.425 0.502,-1.425 0.28,0 0.51,-0.824 0.51,-1.83 l 0,-3.352 c 0,-1.007 0.705,-1.831 1.566,-1.831 0.863,0 1.572,0.72 1.572,1.6 0,0.88 0.319,1.6 0.713,1.6 0.395,0 0.715,0.528 0.715,1.173 0,0.644 0.818,1.172 1.816,1.172 0.999,0 1.819,0.824 1.819,1.831 l 0,0.231 c 0,1.008 0.285,1.831 0.633,1.831 0.345,0 0.632,0.101 0.632,0.226 0,0.126 0.592,0.515 1.321,0.867 0.725,0.352 1.32,0.839 1.32,1.079 0,0.242 0.822,0.441 1.831,0.441 l 2.282,0 c 1.006,0 1.831,-0.205 1.831,-0.454 0,-0.248 0.495,-0.693 1.101,-0.985 0.604,-0.293 1.1,-0.674 1.1,-0.84 0,-0.17 0.346,-0.307 0.771,-0.307 0.424,0 0.77,-0.824 0.77,-1.831 l 0,-9.936 c 0,-1.006 0.124,-1.829 0.277,-1.829 0.148,0 0.271,-0.163 0.271,-0.36 0,-0.199 0.127,-0.358 0.278,-0.358 0.15,0 0.273,0.821 0.273,1.827 l 0,2.847 c 0,1.004 0.289,1.948 0.637,2.093 0.346,0.148 0.939,0.646 1.318,1.107 0.377,0.464 1.496,0.841 2.477,0.841 0.982,0 2.223,-0.329 2.754,-0.733 0.527,-0.403 1.21,-0.733 1.51,-0.733 l 1.791,0 c 0.684,-0.002 1.242,0.166 1.242,0.373 0,0.205 0.127,0.372 0.279,0.372 0.152,0 0.279,-0.167 0.279,-0.372 0,-0.207 0.444,-0.375 0.985,-0.375 0.539,0 0.982,-0.824 0.982,-1.831 l 0,-0.302 c 0,-1.007 0.27,-1.829 0.593,-1.829 0.325,0 0.591,0.822 0.591,1.829 l 0,2.333 c 0,1.007 0.391,1.83 0.869,1.83 0.476,0 0.871,0.08 0.871,0.179 0,0.097 0.162,0.178 0.365,0.178 0.199,0 0.365,-0.081 0.365,-0.178 0,-0.099 0.184,-0.179 0.413,-0.179 0.226,0 0.412,0.034 0.412,0.074 0,0.042 0.496,0.078 1.103,0.078 0.611,0 1.106,-0.036 1.106,-0.078 0,-0.04 0.171,-0.074 0.382,-0.074 0.207,0 0.381,0.095 0.381,0.209 0,0.114 0.041,0.208 0.098,0.208 0.053,0 0.094,-0.094 0.094,-0.208 0,-0.114 0.193,-0.209 0.433,-0.209 0.234,0 0.425,-0.688 0.425,-1.53 0,-0.841 0.415,-1.532 0.917,-1.532 0.506,0 0.914,0.292 0.914,0.649 0,0.354 0.21,0.646 0.467,0.646 0.256,0 0.469,0.121 0.469,0.266 0,0.144 0.375,0.264 0.836,0.264 0.463,0 0.839,-0.12 0.839,-0.264 0,-0.145 0.666,-0.266 1.477,-0.266 0.813,0 1.479,-0.292 1.479,-0.646 0,-0.357 0.175,-0.649 0.388,-0.649 0.211,0 0.383,0.218 0.383,0.484 0,0.264 0.189,0.482 0.42,0.482 0.23,0 0.418,-0.218 0.418,-0.482 0,-0.266 0.239,-0.484 0.531,-0.484 0.291,0 0.528,-0.698 0.528,-1.549 0,-0.852 0.404,-1.549 0.902,-1.549 0.492,0 0.896,-0.268 0.896,-0.597 0,-0.326 0.344,-0.595 0.76,-0.595 0.422,0 0.762,0.822 0.762,1.83 l 0,2.636 c 0,1.006 0.232,1.831 0.513,1.831 0.284,0 0.514,0.131 0.514,0.293 0,0.161 0.188,0.293 0.418,0.293 0.233,0 0.422,-0.132 0.422,-0.293 0,-0.162 0.313,-0.293 0.695,-0.293 0.384,0 0.701,0.202 0.701,0.45 0,0.248 0.105,0.452 0.231,0.452 0.129,0 0.236,-0.204 0.236,-0.452 0,-0.248 0.231,-0.45 0.512,-0.45 0.281,0 0.512,0.071 0.512,0.155 0,0.087 0.273,0.159 0.605,0.159 0.334,0 0.606,-0.072 0.606,-0.159 0,-0.084 0.295,-0.155 0.653,-0.155 0.356,0 0.65,0.14 0.65,0.314 0,0.175 0.273,0.318 0.605,0.318 0.334,0 0.608,0.111 0.608,0.249 0,0.136 0.21,0.246 0.466,0.246 0.257,0 0.466,-0.11 0.466,-0.246 0,-0.138 0.105,-0.249 0.231,-0.249 0.129,0 0.235,-0.143 0.235,-0.318 0,-0.174 0.418,-0.314 0.931,-0.314 0.512,0 0.932,-0.825 0.932,-1.831 l 0,-0.983 c 0,-1.006 0.272,-1.83 0.606,-1.83 0.332,0 0.605,0.107 0.605,0.243 0,0.133 0.15,0.24 0.327,0.24 0.178,0 0.325,-0.107 0.325,-0.24 0,-0.136 0.213,-0.243 0.473,-0.243 0.257,0 0.471,-0.128 0.471,-0.283 0,-0.157 0.55,-0.284 1.227,-0.284 0.67,0 1.224,0.155 1.224,0.344 0,0.19 0.074,0.344 0.165,0.344 0.091,0 0.169,-0.154 0.169,-0.344 0,-0.189 0.325,-0.344 0.727,-0.344 0.398,0 0.724,0.157 0.724,0.349 0,0.193 0.338,0.351 0.752,0.351 0.412,0 0.75,0.264 0.75,0.585 0,0.324 0.152,0.588 0.34,0.588 0.183,0 0.34,0.129 0.34,0.289 0,0.158 0.103,0.29 0.234,0.29 0.129,0 0.232,-0.132 0.232,-0.29 l 0,-0.877 0,-0.585 c 0,0 0.663,-0.003 1.469,-0.008 0.809,-0.004 1.449,-0.207 1.42,-0.451 -0.023,-0.245 0.211,-0.441 0.529,-0.437 0.319,0.005 0.584,0.079 0.588,0.163 0.008,0.086 0.336,0.153 0.726,0.152 0.39,-0.002 0.708,0.37 0.708,0.827 0,0.456 0.183,0.83 0.399,0.83 0.224,0 0.405,0.161 0.405,0.36 0,0.198 0.085,0.361 0.184,0.361 0.102,0 0.187,-0.163 0.187,-0.361 0,-0.199 0.149,-0.36 0.329,-0.36 0.178,0 0.324,0.278 0.324,0.617 0,0.341 0.602,0.618 1.334,0.618 0.734,0 1.333,0.2 1.333,0.444 0,0.244 0.112,0.445 0.249,0.445 0.14,0 0.252,-0.201 0.252,-0.445 0,-0.244 0.207,-0.444 0.466,-0.444 0.257,0 0.464,0.26 0.464,0.579 0,0.319 0.357,0.58 0.789,0.58 0.436,0 0.788,0.182 0.788,0.406 0,0.221 0.247,0.403 0.548,0.403 0.304,0 0.55,-0.442 0.55,-0.985 0,-0.541 0.823,-0.983 1.829,-0.983 l 0.149,0 c 1.009,0 1.831,-0.776 1.831,-1.723 0,-0.948 0.186,-1.724 0.408,-1.724 0.229,0 1.078,0.096 1.897,0.21 0.819,0.115 1.487,0.104 1.487,-0.023 0,-0.13 0.389,-0.239 0.861,-0.247 0.474,-0.007 0.855,0.181 0.841,0.418 -0.012,0.239 0.279,0.433 0.647,0.433 0.367,0 0.668,0.137 0.668,0.303 0,0.167 0.216,0.302 0.481,0.302 0.266,0 0.483,-0.135 0.483,-0.302 0,-0.166 0.358,-0.303 0.791,-0.303 0.436,0 0.791,-0.304 0.791,-0.674 0,-0.371 0.389,-0.676 0.864,-0.676 0.474,0 0.865,0.138 0.865,0.305 0,0.164 0.279,0.306 0.62,0.311 0.343,0.006 0.609,-0.12 0.587,-0.279 -0.023,-0.159 0.518,-0.279 1.197,-0.266 0.682,0.012 1.238,0.252 1.238,0.534 0,0.282 0.348,0.501 0.77,0.488 0.42,-0.011 0.766,-0.096 0.766,-0.185 0,-0.089 0.281,-0.162 0.625,-0.162 0.34,0 0.619,0.042 0.619,0.092 0,0.053 0.521,0.093 1.152,0.093 0.633,0 1.153,-0.136 1.153,-0.302 0,-0.166 0.671,-0.303 1.494,-0.303 0.824,0 1.5,0.073 1.504,0.164 0.003,0.089 0.414,0.168 0.906,0.175 0.496,0.007 0.914,-0.391 0.93,-0.884 0.015,-0.492 0.261,-0.892 0.55,-0.886 0.285,0.004 0.504,0.173 0.487,0.377 -0.018,0.204 0.463,0.376 1.067,0.385 0.603,0.009 1.099,-0.086 1.099,-0.207 0,-0.121 0.246,-0.221 0.547,-0.224 0.304,0 0.55,0.18 0.553,0.401 0,0.22 0.478,0.401 1.064,0.401 0.589,0 1.061,-0.102 1.054,-0.223 -0.005,-0.122 0.463,-0.216 1.038,-0.207 0.578,0.009 1.05,-0.093 1.05,-0.222 0.002,-0.131 0.25,-0.236 0.551,-0.236 l 1.234,0 c 0.377,0 0.684,0.07 0.684,0.154 0,0.085 0.043,0.156 0.094,0.156 0.049,0 0.09,0.119 0.09,0.266 0,0.147 0.226,0.265 0.504,0.265 0.277,0 0.503,0.232 0.503,0.513 0,0.28 0.122,0.508 0.274,0.508 0.15,0 0.273,-0.228 0.273,-0.508 0,-0.281 0.288,-0.513 0.643,-0.513 0.35,0 0.639,0.37 0.639,0.823 0,0.451 0.207,0.821 0.459,0.821 0.25,0 0.457,0.1 0.457,0.221 0,0.123 0.288,0.222 0.64,0.222 0.352,0 0.641,-0.099 0.641,-0.222 0,-0.121 0.328,-0.221 0.729,-0.221 0.405,0 0.736,0.1 0.736,0.221 0,0.123 0.162,0.222 0.367,0.222 0.199,0 0.363,-0.099 0.363,-0.222 0,-0.121 0.536,-0.221 1.19,-0.221 l 1.646,0 1.007,0 c 0.3,0 0.55,-0.291 0.55,-0.65 0,-0.356 0.575,-0.649 1.278,-0.649 0.706,0 1.283,-0.156 1.283,-0.349 0,-0.192 0.392,-0.349 0.868,-0.349 0.479,0 0.871,-0.471 0.871,-1.044 0,-0.574 0.329,-1.042 0.731,-1.042 0.402,0 0.732,0.159 0.732,0.355 0,0.195 0.229,0.355 0.502,0.355 0.276,0 0.502,-0.151 0.502,-0.333 0,-0.183 0.31,-0.333 0.688,-0.333 0.378,0 0.687,0.23 0.687,0.51 0,0.281 0.639,0.511 1.418,0.511 0.78,0 1.418,-0.23 1.418,-0.511 0,-0.28 0.268,-0.51 0.594,-0.51 0.328,0 0.594,0.34 0.594,0.753 0,0.416 0.392,0.756 0.87,0.756 0.476,0 0.87,-0.141 0.87,-0.311 0,-0.171 0.369,-0.31 0.824,-0.31 0.452,0 0.824,-0.171 0.824,-0.378 0,-0.208 0.37,-0.376 0.822,-0.376 0.452,0 0.823,0.318 0.823,0.71 l 0,0.976 c 0,0.146 0.66,0.266 1.465,0.266 0.805,0 1.465,0.148 1.465,0.327 0,0.179 0.327,0.327 0.731,0.327 0.404,0 0.73,-0.148 0.73,-0.327 0,-0.179 0.659,-0.327 1.464,-0.327 0.807,0 1.463,-0.139 1.463,-0.31 0,-0.172 0.66,-0.311 1.465,-0.311 0.805,0 1.465,-0.421 1.465,-0.932 0,-0.514 0.287,-0.934 0.641,-0.934 0.351,0 0.64,0.361 0.64,0.801 0,0.437 0.328,0.798 0.729,0.798 0.406,0 0.735,-0.38 0.735,-0.843 0,-0.464 0.351,-0.845 0.777,-0.845 0.427,0 0.779,0.121 0.779,0.266 0,0.147 0.287,0.268 0.64,0.268 0.352,0 0.639,0.049 0.639,0.111 0,0.061 0.143,0.112 0.32,0.112 0.178,0 0.321,-0.051 0.321,-0.112 0,-0.062 0.145,-0.111 0.321,-0.111 0.175,0 0.318,0.091 0.318,0.2 0,0.11 0.352,0.2 0.779,0.2 0.429,0 0.781,-0.2 0.781,-0.444 0,-0.245 0.346,-0.445 0.775,-0.445 0.426,0 0.778,0.259 0.778,0.579 0,0.315 0.35,0.576 0.777,0.576 0.428,0 0.779,-0.099 0.779,-0.222 0,-0.123 0.227,-0.221 0.5,-0.221 0.279,0 0.507,-0.141 0.507,-0.311 0,-0.171 0.369,-0.312 0.821,-0.312 0.454,0 0.823,0.272 0.823,0.6 0,0.328 0.167,0.6 0.367,0.6 0.201,0 0.365,-0.25 0.365,-0.556 0,-0.306 0.248,-0.556 0.549,-0.556 0.305,0 0.551,0.161 0.551,0.356 0,0.195 0.246,0.356 0.55,0.356 0.3,0 0.546,-0.23 0.546,-0.51 0,-0.281 0.496,-0.512 1.097,-0.512 0.604,0 1.102,0.099 1.102,0.222 0,0.123 0.224,0.223 0.502,0.223 0.275,0 0.502,-0.261 0.502,-0.578 0,-0.316 0.39,-0.577 0.871,-0.577 0.476,0 0.867,0.171 0.867,0.379 0,0.206 0.207,0.375 0.457,0.375 0.252,0 0.457,0.249 0.457,0.556 0,0.306 0.104,0.556 0.228,0.556 0.127,0 0.229,0.109 0.229,0.243 0,0.134 0.537,0.244 1.191,0.244 0.654,0 1.19,-0.212 1.19,-0.465 0,-0.257 0.205,-0.466 0.457,-0.466 0.253,0 0.457,-0.191 0.457,-0.424 0,-0.232 0.226,-0.421 0.504,-0.421 0.276,0 0.504,0.071 0.504,0.156 0,0.085 0.33,0.154 0.73,0.154 0.402,0 0.732,-0.159 0.732,-0.354 0,-0.194 0.309,-0.355 0.686,-0.355 0.379,0 0.688,0.11 0.688,0.245 0,0.133 0.433,0.243 0.961,0.243 0.527,0 0.96,-0.189 0.96,-0.42 0,-0.233 0.37,-0.423 0.825,-0.423 0.45,0 0.822,0.33 0.822,0.732 0,0.403 0.184,0.733 0.41,0.733 0.229,0 0.413,0.488 0.413,1.086 0,0.599 0.823,1.088 1.829,1.088 l 2.563,0 c 1.006,0 1.831,-0.548 1.831,-1.221 0,-0.67 0.059,-1.221 0.134,-1.221 0.077,0 0.14,-0.277 0.14,-0.622 0,-0.339 0.369,-0.621 0.823,-0.621 0.451,0 0.824,0.102 0.824,0.223 l 0,0.432 c 0,0.114 0.223,0.208 0.502,0.208 0.275,0 0.502,0.058 0.502,0.125 0,0.066 0.103,0.122 0.23,0.122 0.127,0 0.231,-0.049 0.231,-0.11 0,-0.06 0.078,-0.111 0.18,-0.111 0.103,0 0.183,0.029 0.183,0.067 0,0.036 0.146,0.065 0.32,0.065 0.178,0 0.322,-0.037 0.322,-0.088 l 0,-0.377 c 0,-0.159 0.122,-0.289 0.274,-0.289 0.152,0 0.274,0.09 0.274,0.202 0,0.109 0.37,0.199 0.825,0.199 0.452,0 0.825,-0.192 0.825,-0.422 0,-0.232 0.427,-0.422 0.957,-0.422 0.527,0 0.963,0.269 0.963,0.6 0,0.329 0.35,0.597 0.777,0.597 0.428,0 0.777,-0.268 0.777,-0.597 0,-0.331 0.229,-0.6 0.502,-0.6 0.276,0 0.502,0.409 0.502,0.91 0,0.501 0.188,0.911 0.412,0.911 0.228,0 0.495,0.227 0.597,0.509 0.101,0.281 0.265,0.291 0.366,0.023 0.102,-0.268 0.367,-0.489 0.594,-0.489 0.227,0 0.411,-0.33 0.411,-0.732 0,-0.402 0.227,-0.733 0.507,-0.733 0.275,0 0.5,-0.109 0.5,-0.244 0,-0.134 0.227,-0.244 0.503,-0.244 0.278,0 0.505,0.1 0.505,0.221 0,0.122 0.185,0.222 0.409,0.222 0.228,0 0.413,0.101 0.413,0.223 0,0.123 0.184,0.22 0.412,0.22 0.227,0 0.412,-0.067 0.412,-0.152 0,-0.088 0.123,-0.156 0.274,-0.153 0.152,0.003 0.275,-0.672 0.275,-1.499 l 0,-1.288 c 0,0 -1.303,-0.216 -1.83,-0.216 l -95.771,0 -3.658,0 -48.465,-0.01 -3.659,0 -21.72,-0.002 -3.658,0 -24.518,-0.002 -3.659,0 -67.45,-0.005 -3.657,0 -60.623,-0.005 -3.66,0 -89.556,-0.006 -1.857,0 -0.731,0 -0.706,0 c 0,0 -0.823,0 -1.829,0.001 L 1.235,-4.143 c -0.563,0 -1.83,-0.07 -1.83,-0.07 l 0,1.9 0,0.483 C -0.595,-0.824 -0.329,0 0,0" />
    </g>
  </g>
</svg>
